<svg xmlns="http://www.w3.org/2000/svg" id="Layer_1" enable-background="new 0 0 30 30" viewBox="0 0 30 30"><g><path d="m26.446 18.724h-22.895c-2.852-.086-4.403 3.646-2.352 5.614-.304 2.838 1.358 5.369 4.36 5.42h18.88c2.404 0 4.354-1.946 4.36-4.35v-1.07c2.061-1.973.489-5.696-2.353-5.614zm.858 6.684c-.004 1.578-1.287 2.854-2.865 2.85h-18.88c-1.654.007-2.957-1.407-2.86-3.05.225.218 24.375.218 24.605 0zm-.853-1.579h-22.9c-2.362-.038-2.375-3.564 0-3.605h22.9c2.362.038 2.375 3.565 0 3.605z" fill="#ffffff"/><path d="m.999 16.027c1.415-.052 2.552 1.109 4 .944 1.45.164 2.583-.997 4-.944 1.414-.052 2.549 1.108 3.997.944 1.448.164 2.583-.996 3.998-.944.586-.018 1.165.12 1.68.4 1.424.74 3.219.74 4.643 0 2.072-1.19 3.648.601 5.682.544.971-.003.989-1.496 0-1.5-.586.018-1.167-.12-1.682-.4-1.463-.724-3.181-.724-4.644 0-1.057.535-2.305.535-3.362 0-1.423-.738-3.217-.739-4.64 0-1.022.548-2.335.548-3.357 0-.713-.374-1.51-.561-2.315-.544-1.448-.163-2.584.995-3.998.943-1.417.051-2.552-1.108-4.002-.943-.972.003-.988 1.496 0 1.5z" fill="#ffffff"/><path d="m3.549 12.514h22.903c4.551-.209 3.766-6.095 1.156-8.321-3.327-3.132-8.536-3.818-11.345-3.948-4.37-.036-9.37.128-13.87 3.948-2.606 2.225-3.399 8.114 1.156 8.321zm-.128-7.227c5.366-4.812 17.784-4.819 23.161-.003 1.548 1.338 2.88 5.439-.13 5.727h-22.907c-3.012-.292-1.669-4.387-.124-5.724z" fill="#ffffff"/><path d="m18.578 8.745c1.058-.005 1.058-1.614 0-1.618-1.058.005-1.058 1.614 0 1.618z" fill="#ffffff"/><path d="m20.825 5.78c1.058-.005 1.058-1.613 0-1.618-1.065-.001-1.049 1.599 0 1.618z" fill="#ffffff"/><path d="m5.661 8.895c1.069.033 1.062-1.59.007-1.588-1.06-.025-1.052 1.583-.007 1.588z" fill="#ffffff"/><path d="m9.233 6.079c1.058-.005 1.058-1.614 0-1.618-1.042.041-1.064 1.606 0 1.618z" fill="#ffffff"/><path d="m15.164 5.45c1.058-.005 1.058-1.614 0-1.618-1.058.005-1.058 1.614 0 1.618z" fill="#ffffff"/><path d="m24.329 8.685c1.058-.005 1.058-1.614 0-1.618-1.058.005-1.058 1.614 0 1.618z" fill="#ffffff"/><path d="m12.558 8.745c1.058-.005 1.058-1.614 0-1.618-1.058.005-1.058 1.614 0 1.618z" fill="#ffffff"/></g></svg>